<?xml version="1.0" standalone="no"?><!DOCTYPE svg PUBLIC "-//W3C//DTD SVG 1.1//EN" "http://www.w3.org/Graphics/SVG/1.1/DTD/svg11.dtd"><svg t="1497270905530" class="icon" style="" viewBox="0 0 1024 1024" version="1.1" xmlns="http://www.w3.org/2000/svg" p-id="6153" xmlns:xlink="http://www.w3.org/1999/xlink" width="128" height="128"><defs><style type="text/css"></style></defs><path d="M695.322 232.532l66.466-118.809c4.382-7.838 1.59-17.74-6.25-22.119-7.854-4.38-17.742-1.587-22.12 6.251l-67.07 119.913c-47.052-21.433-99.312-33.37-154.349-33.37-55.04 0-107.3 11.936-154.352 33.368L290.578 97.853c-4.38-7.838-14.28-10.63-22.119-6.251-7.839 4.38-10.631 14.282-6.252 22.12l66.467 118.807C215.027 296.83 138.281 419.08 138.281 559.415c0 207.126 167.326 375.055 373.719 375.055 206.377 0 373.719-167.928 373.719-375.055 0-140.332-76.752-262.582-190.397-326.883zM351.116 512.004c-22.39 0-40.62-18.169-40.62-40.622 0-22.437 18.234-40.621 40.62-40.621 22.389 0 40.621 18.184 40.621 40.621 0 22.453-18.232 40.622-40.62 40.622z m321.768 0c-22.377 0-40.622-18.169-40.622-40.622 0-22.437 18.245-40.621 40.622-40.621 22.5 0 40.62 18.184 40.62 40.621 0 22.453-18.12 40.622-40.62 40.622z" fill="#ff5335" p-id="6154"></path></svg>